# xmcd
#
# Track frame offsets:
# 150
# 13060
# 26498
# 37388
# 49903
# 69395
# 83273
# 97808
# 113445
# 119495
# 127823
# 147518
#
# Disc length: 2155 seconds
#
#
# Revision: 3
# Processed by: cddbd v1.5.1PL2 Copyright (c) Steve Scherf et al.
# Submitted via: FreeRIP 2.60 
#
DISCID=9708690c
DTITLE=T-Bone Walker - Stormy Monday Blues
DYEAR=1992
DGENRE=Blues
TTITLE0=Stormy Monday Blues
TTITLE1=All Night Long
TTITLE2=My Patience Keeps Running Out
TTITLE3=Glamour Girl
TTITLE4=T-Bone's Way
TTITLE5=That Evening Train
TTITLE6=Louisiana Bayou Drive
TTITLE7=When We Were Schoolmates
TTITLE8=Don't Go Back To New Orleans
TTITLE9=Got To Cross The Deep Blue Sea
TTITLE10=(You'll Never Find Anyone) To Be A Slave Like Me
TTITLE11=Left Home When I Was A Kid
EXTD=
EXTT0=
EXTT1=
EXTT2=
EXTT3=
EXTT4=
EXTT5=
EXTT6=
EXTT7=
EXTT8=
EXTT9=
EXTT10=
EXTT11=
PLAYORDER=
